<?xml version="1.0" encoding="UTF-8" standalone="no"?>
<svg
   xmlns:dc="http://purl.org/dc/elements/1.1/"
   xmlns:cc="http://creativecommons.org/ns#"
   xmlns:rdf="http://www.w3.org/1999/02/22-rdf-syntax-ns#"
   xmlns:svg="http://www.w3.org/2000/svg"
   xmlns="http://www.w3.org/2000/svg"
   xmlns:sodipodi="http://sodipodi.sourceforge.net/DTD/sodipodi-0.dtd"
   xmlns:inkscape="http://www.inkscape.org/namespaces/inkscape"
   data-name="Layer 1"
   viewBox="0 0 107.07906 107.01196"
   x="0px"
   y="0px"
   version="1.1"
   id="svg14"
   sodipodi:docname="noun_tools_1388491.svg"
   inkscape:export-filename="C:\Users\garyr\Documents\minilogue\resources\tools.png"
   inkscape:export-xdpi="30.738171"
   inkscape:export-ydpi="30.738171"
   width="107.07906"
   height="107.01196"
   inkscape:version="0.92.3 (2405546, 2018-03-11)">
  <metadata
     id="metadata20">
    <rdf:RDF>
      <cc:Work
         rdf:about="">
        <dc:format>image/svg+xml</dc:format>
        <dc:type
           rdf:resource="http://purl.org/dc/dcmitype/StillImage" />
        <dc:title>All3</dc:title>
      </cc:Work>
    </rdf:RDF>
  </metadata>
  <defs
     id="defs18" />
  <sodipodi:namedview
     pagecolor="#ffffff"
     bordercolor="#666666"
     borderopacity="1"
     objecttolerance="10"
     gridtolerance="10"
     guidetolerance="10"
     inkscape:pageopacity="0"
     inkscape:pageshadow="2"
     inkscape:window-width="1920"
     inkscape:window-height="1001"
     id="namedview16"
     showgrid="false"
     inkscape:zoom="5.6568543"
     inkscape:cx="23.024301"
     inkscape:cy="47.346634"
     inkscape:window-x="-9"
     inkscape:window-y="-9"
     inkscape:window-maximized="1"
     inkscape:current-layer="svg14"
     inkscape:snap-page="true"
     fit-margin-top="0"
     fit-margin-left="0"
     fit-margin-right="0"
     fit-margin-bottom="0" />
  <title
     id="title2">All3</title>
  <rect
     style="fill:#ffffff;fill-opacity:1;stroke:none;stroke-width:2.9333334;stroke-linecap:butt;stroke-linejoin:round;stroke-miterlimit:4.5999999;stroke-dasharray:none;stroke-opacity:1"
     id="rect830"
     width="107.07906"
     height="107.01196"
     x="0"
     y="0" />
  <path
     d="m 103.53775,25.795534 a 21.59,21.59 0 0 1 -4.529999,13 21.1,21.1 0 0 1 -13,8.05 20.75,20.75 0 0 1 -7,0.14 23.84,23.84 0 0 1 -3,-0.65 0.66,0.66 0 0 0 -0.38,0 l -2.93,2.89 -8.82,8.71 -6.48,6.44 -8.1,8 a 4.62,4.62 0 0 1 -0.42,0.33 4.58,4.58 0 0 1 -1,1 c -0.69,0.69 -1.35,1.41 -2.1,2 0.23,1.11 0.48,2.21 0.63,3.34 a 21.44,21.44 0 0 1 -0.05,5.62 20.73,20.73 0 0 1 -2,6.67 21.37,21.37 0 0 1 -13.3,11.269996 20.46,20.46 0 0 1 -6.83,0.85 21.26,21.26 0 0 1 -5.83,-1 c -0.36,-0.12 -0.37,-0.2 -0.09,-0.47 q 5.31,-5.209996 10.59,-10.449996 l 1.49,-1.5 a 1.8,1.8 0 0 0 0,-2.78 c -1,-1.08 -2.07,-2.15 -3.1,-3.22 l -3.45,-3.57 c -1.39,-1.44 -2.77,-2.89 -4.16,-4.32 a 1.75,1.75 0 0 0 -2.74,0 l -5.48,5.39 -6.6799998,6.61 -0.24,0.19 a 23.13,23.13 0 0 1 -0.82,-3.8 7.41,7.41 0 0 0 -0.18,-1.42 v -2.87 c 0.09,-0.65 0.18,-1.29 0.27,-1.94 a 20.77,20.77 0 0 1 1.73,-5.84 21.43,21.43 0 0 1 8.1599998,-9.32 21.29,21.29 0 0 1 17.44,-2.38 0.54,0.54 0 0 0 0.33,0 l 2.93,-2.88 8.06,-8 7.39,-7.35 8,-7.87 a 3,3 0 0 1 0.39,-0.3 0.76,0.76 0 0 1 0.3,-0.47 l 2.63,-2.6 a 0.78,0.78 0 0 0 0,-0.62 22,22 0 0 1 2.72,-17.14 21.44,21.44 0 0 1 7.65,-7.2600001 20.41,20.41 0 0 1 7.81,-2.57 5,5 0 0 0 1.33,-0.17 h 2.54 l 2.11,0.28 a 20.25,20.25 0 0 1 3.26,0.72 c 0.48,0.14 0.49,0.19 0.13,0.55 l -7,6.9000001 -5,5 a 1.88,1.88 0 0 0 -0.09,2.73 l 10.79,11.24 a 1.73,1.73 0 0 0 2.7,0 l 8.9,-8.81 3.149999,-3.11 c 0.09,-0.09 0.2,-0.16 0.33,-0.27 a 16,16 0 0 1 0.82,3.52 21.82,21.82 0 0 1 0.22,3.51 z"
     id="path4"
     inkscape:connector-curvature="0"
     style="fill:#3c3c3c;fill-opacity:1" />
  <path
     d="m 19.477751,36.035534 c 1.25,0 2.5,0 3.76,0 a 0.64,0.64 0 0 0 0.66,-0.36 32,32 0 0 1 3.56,-4.89 0.51,0.51 0 0 0 0.1,-0.61 c -0.86,-2.39 -1.71,-4.79 -2.57,-7.19 a 0.46,0.46 0 0 1 0.12,-0.6 43,43 0 0 1 7.59,-5.52 0.44,0.44 0 0 1 0.59,0 c 2,1.55 4,3.09 6,4.64 a 0.64,0.64 0 0 0 0.74,0.1 33.15,33.15 0 0 1 5.78,-1.87 0.48,0.48 0 0 0 0.4,-0.4 c 0.7,-2.43 1.43,-4.85 2.13,-7.28 a 0.57,0.57 0 0 1 0.59,-0.48 42.45,42.45 0 0 1 8.54,-0.04 c 0.29,0 0.58,0.08 0.87,0.09 a 0.29,0.29 0 0 1 0.3,0.25 c 0.24,0.84 0.5,1.67 0.75,2.5 a 0.78,0.78 0 0 1 -0.11,0.57 25.59,25.59 0 0 0 -2.2,11 18.49,18.49 0 0 0 0.25,2.86 c 0.07,0.4 0.07,0.55 -0.45,0.47 a 23.21,23.21 0 0 0 -7.29,0.08 24.51,24.51 0 0 0 -20.14,19.99 22.81,22.81 0 0 0 -0.16,7.19 c 0,0.32 -0.1,0.29 -0.29,0.25 a 24.87,24.87 0 0 0 -5.78,-0.28 17.86,17.86 0 0 0 -3.65,0.57 c -0.35,0.1 -0.49,0.08 -0.52,-0.37 a 34.94,34.94 0 0 1 0,-6.13 0.61,0.61 0 0 0 -0.32,-0.64 l -6.26,-4.32 a 0.44,0.44 0 0 1 -0.25,-0.54 43.51,43.51 0 0 1 2.94,-9 0.39,0.39 0 0 1 0.47,-0.22 h 3.85 z"
     id="path6"
     inkscape:connector-curvature="0"
     style="fill:#3c3c3c;fill-opacity:1" />
  <path
     d="m 88.337751,70.905534 c -1.25,0 -2.5,0 -3.76,0 a 0.64,0.64 0 0 0 -0.66,0.36 32,32 0 0 1 -3.56,4.89 0.51,0.51 0 0 0 -0.1,0.61 c 0.86,2.39 1.71,4.79 2.57,7.19 a 0.46,0.46 0 0 1 -0.12,0.6 43,43 0 0 1 -7.59,5.52 0.44,0.44 0 0 1 -0.59,0 c -2,-1.55 -4,-3.09 -6,-4.64 a 0.64,0.64 0 0 0 -0.74,-0.1 33.15,33.15 0 0 1 -5.78,1.87 0.48,0.48 0 0 0 -0.4,0.4 c -0.7,2.43 -1.43,4.85 -2.13,7.28 a 0.57,0.57 0 0 1 -0.59,0.48 42.45,42.45 0 0 1 -8.52,0.07 c -0.29,0 -0.58,-0.08 -0.87,-0.09 a 0.29,0.29 0 0 1 -0.3,-0.25 c -0.24,-0.84 -0.5,-1.67 -0.75,-2.5 a 0.78,0.78 0 0 1 0.09,-0.62 25.59,25.59 0 0 0 2.2,-11 18.49,18.49 0 0 0 -0.2,-2.9 c -0.07,-0.4 -0.07,-0.55 0.45,-0.47 a 23.21,23.21 0 0 0 7.25,-0.07 24.51,24.51 0 0 0 20.13,-19.93 22.81,22.81 0 0 0 0.17,-7.14 c 0,-0.32 0.1,-0.29 0.29,-0.25 a 24.87,24.87 0 0 0 5.78,0.28 17.86,17.86 0 0 0 3.65,-0.57 c 0.35,-0.1 0.49,-0.08 0.52,0.37 a 34.94,34.94 0 0 1 0,6.13 0.61,0.61 0 0 0 0.32,0.64 l 6.27,4.27 a 0.44,0.44 0 0 1 0.25,0.54 43.51,43.51 0 0 1 -2.94,9 0.39,0.39 0 0 1 -0.47,0.22 h -3.87 z"
     id="path8"
     inkscape:connector-curvature="0"
     style="fill:#3c3c3c;fill-opacity:1" />
</svg>
